<svg width="35" height="35" viewBox="0 0 36 36" fill="none" xmlns="http://www.w3.org/2000/svg">
<path d="M18 1C8.62031 1 1 8.62031 1 18C1 27.3797 8.62031 35 18 35C27.3797 35 35 27.3797 35 18C35 8.62031 27.3797 1 18 1ZM18 2.54545C26.5445 2.54545 33.4545 9.45554 33.4545 18C33.4545 26.5445 26.5445 33.4545 18 33.4545C9.45554 33.4545 2.54545 26.5445 2.54545 18C2.54545 9.45554 9.45554 2.54545 18 2.54545ZM11.8106 11.0379C11.6569 11.0379 11.5067 11.0838 11.3792 11.1697C11.2517 11.2556 11.1527 11.3775 11.0948 11.5199C11.037 11.6623 11.0229 11.8188 11.0545 11.9692C11.086 12.1197 11.1617 12.2573 11.2718 12.3645L16.9073 18L11.2718 23.6355C11.1977 23.7067 11.1385 23.792 11.0977 23.8863C11.0569 23.9807 11.0353 24.0823 11.0343 24.1851C11.0332 24.2879 11.0527 24.3899 11.0916 24.485C11.1304 24.5802 11.1879 24.6667 11.2606 24.7394C11.3333 24.8121 11.4198 24.8696 11.515 24.9084C11.6101 24.9473 11.7121 24.9668 11.8149 24.9657C11.9177 24.9647 12.0193 24.9431 12.1137 24.9023C12.208 24.8615 12.2933 24.8023 12.3645 24.7282L18 19.0927L23.6355 24.7282C23.7067 24.8023 23.792 24.8615 23.8863 24.9023C23.9807 24.9431 24.0823 24.9647 24.1851 24.9657C24.2879 24.9668 24.3899 24.9473 24.485 24.9084C24.5802 24.8696 24.6667 24.8121 24.7394 24.7394C24.8121 24.6667 24.8696 24.5802 24.9084 24.485C24.9473 24.3899 24.9668 24.2879 24.9657 24.1851C24.9647 24.0823 24.9431 23.9807 24.9023 23.8863C24.8615 23.792 24.8023 23.7067 24.7282 23.6355L19.0927 18L24.7282 12.3645C24.8398 12.256 24.9161 12.1162 24.947 11.9636C24.9778 11.811 24.9619 11.6526 24.9012 11.5092C24.8405 11.3658 24.7379 11.244 24.6068 11.16C24.4758 11.0759 24.3224 11.0333 24.1667 11.0379C23.966 11.0439 23.7754 11.1278 23.6355 11.2718L18 16.9073L12.3645 11.2718C12.2925 11.1978 12.2064 11.139 12.1113 11.0988C12.0161 11.0586 11.9139 11.0379 11.8106 11.0379Z" fill="black" stroke="black" stroke-width="0.6" stroke-linecap="round" stroke-linejoin="round"/>
</svg>
