<svg width="48" height="32" viewBox="0 0 48 32" fill="none" xmlns="http://www.w3.org/2000/svg"><path d="M15.36 0.640625C6.89088 0.640625 0 7.53151 0 16.0006C0 24.4697 6.89088 31.3606 15.36 31.3606C18.5618 31.3606 21.5364 30.3734 24 28.6906C26.4633 30.3726 29.4377 31.3606 32.64 31.3606C41.1117 31.3606 48 24.4723 48 16.0006C48 7.5289 41.1117 0.640625 32.64 0.640625C29.4377 0.640625 26.4633 1.62868 24 3.31062C21.5364 1.62787 18.5618 0.640625 15.36 0.640625ZM32.64 2.56062C40.0741 2.56062 46.08 8.56655 46.08 16.0006C46.08 23.4347 40.0741 29.4406 32.64 29.4406C30.0473 29.4406 27.6373 28.6975 25.5863 27.4306C28.7288 24.6161 30.72 20.541 30.72 16.0006C30.72 11.4602 28.7288 7.38519 25.5863 4.57062C27.6373 3.3038 30.0473 2.56062 32.64 2.56062Z" fill="#238441"/></svg>
