<svg width="48" height="36" viewBox="0 0 48 36" fill="none" xmlns="http://www.w3.org/2000/svg">
<path fill-rule="evenodd" clip-rule="evenodd" d="M4.8 2.6207C3.20184 2.6207 1.9 3.92254 1.9 5.5207V30.4807C1.9 32.0789 3.20184 33.3807 4.8 33.3807H43.2C44.7982 33.3807 46.1 32.0789 46.1 30.4807V5.5207C46.1 3.92254 44.7982 2.6207 43.2 2.6207H4.8ZM0 5.5207C0 2.8732 2.1525 0.720703 4.8 0.720703H43.2C45.8475 0.720703 48 2.8732 48 5.5207V30.4807C48 33.1282 45.8475 35.2807 43.2 35.2807H4.8C2.1525 35.2807 0 33.1282 0 30.4807V5.5207Z" fill="#238441"/>
<path d="M12.1617 18.9306L13.5354 14.0783C13.7778 13.2695 14.5051 12.7034 15.394 12.7034H18.7879V23.2977H15.394V17.0705H15.2324L13.293 23.2977H10.8687L8.92933 17.0705H8.68691V23.2977H5.29297V12.7034H8.68691C9.5758 12.7034 10.3031 13.2695 10.5455 14.0783L11.9192 18.9306H12.1617Z" fill="#238441"/>
<path d="M23.7965 18.9306L26.14 13.8356C26.4632 13.1887 27.1097 12.7034 27.9177 12.7034H30.746V23.2977H27.3521V17.0705H27.1097L24.7662 22.1655C24.443 22.8934 23.7157 23.2977 22.9884 23.2977H20.1602V12.7034H23.5541V18.9306H23.7965Z" fill="#238441"/>
<path d="M32.1992 23.298H35.5124V19.9013H39.1487C40.6841 19.9013 42.0578 18.9309 42.5427 17.4752H32.1992V23.298Z" fill="#238441"/>
<path d="M31.7148 12.7034H39.1492C41.0886 12.7034 42.7047 14.3209 42.7047 16.2618C42.7047 16.5044 42.7047 16.7471 42.6239 16.9897H36.8866C34.3007 16.9897 32.1997 15.1296 31.7148 12.7034Z" fill="#238441"/>
</svg>
