<svg width="46" height="34" viewBox="0 0 46 34" fill="none" xmlns="http://www.w3.org/2000/svg"><path d="M7.27375 0.000698403C7.23422 0.0080708 7.19469 0.019128 7.15875 0.0301861H4.14C1.8975 0.0301861 0 1.97637 0 4.27641C0 6.57645 1.8975 8.52264 4.14 8.52264H4.6V1.9174H6.44V28.7217C6.44 29.0792 6.48672 29.4147 6.555 29.7538C6.55859 29.7648 6.55141 29.7722 6.555 29.7833C6.58734 29.9454 6.62328 30.1003 6.67 30.2551C6.67359 30.2624 6.66641 30.2772 6.67 30.2846C6.77063 30.6052 6.91438 30.9075 7.0725 31.1987C7.07609 31.206 7.06891 31.2208 7.0725 31.2282C7.14797 31.3682 7.24141 31.5083 7.33125 31.641C7.33484 31.6484 7.32766 31.6631 7.33125 31.6705C7.51813 31.9506 7.73016 32.1976 7.96375 32.4372C8.19734 32.6767 8.43813 32.8942 8.71125 33.0859C8.71844 33.0896 8.73281 33.0822 8.74 33.0859C8.86938 33.1743 9.00234 33.2739 9.1425 33.3513C9.29344 33.4397 9.44078 33.5171 9.6025 33.5872C9.75703 33.6535 9.90078 33.7125 10.0625 33.7641C10.0697 33.7678 10.0841 33.7604 10.0913 33.7641C10.2422 33.812 10.3931 33.8489 10.5513 33.882C10.8927 33.9595 11.2269 34 11.5863 34H34.1263C34.3131 34 34.4928 33.9889 34.6725 33.9705C34.8522 33.9521 35.0462 33.9189 35.2188 33.882C35.4056 33.8415 35.5566 33.7936 35.7363 33.7346C35.8369 33.7014 35.9267 33.6535 36.0238 33.6167C36.1352 33.5724 36.2609 33.5503 36.3688 33.4987C36.6275 33.3734 36.8827 33.2186 37.1162 33.0564C37.2708 32.9495 37.4073 32.8537 37.5475 32.732C37.6697 32.6288 37.7811 32.5219 37.8925 32.4077C37.9033 32.3966 37.9105 32.3892 37.9212 32.3782C38.0327 32.2639 38.1369 32.1202 38.2375 31.9948C38.2447 31.9838 38.2591 31.9764 38.2663 31.9654C38.3669 31.84 38.4639 31.7147 38.5537 31.582C38.5609 31.571 38.5753 31.5636 38.5825 31.5525C38.6688 31.4161 38.737 31.2834 38.8125 31.1397C38.8197 31.1286 38.8341 31.1213 38.8413 31.1102C38.9131 30.9738 38.9814 30.8116 39.0425 30.6679C39.0497 30.6495 39.0641 30.6273 39.0713 30.6089C39.1287 30.4652 39.1683 30.314 39.215 30.1666C39.2222 30.1482 39.2366 30.1261 39.2438 30.1076C39.2941 29.9454 39.3228 29.8017 39.3587 29.6358C39.3623 29.6285 39.3587 29.6137 39.3587 29.6063C39.3947 29.4294 39.427 29.2562 39.445 29.0756C39.463 28.8913 39.4738 28.7033 39.4738 28.5153V1.9174H41.3138V8.52264H41.86C44.1025 8.52264 46 6.57645 46 4.27641C46 1.97637 44.1025 0.0301861 41.86 0.0301861H7.5325C7.44984 0.00807079 7.36 -0.00298732 7.27375 0.000698403ZM24.84 1.9174H32.2V32.1128H24.84V1.9174Z" fill="#238441"/></svg>
