<svg width="48" height="36" viewBox="0 0 48 36" fill="none" xmlns="http://www.w3.org/2000/svg">
<path d="M4.8 0.720703C2.1525 0.720703 0 2.8732 0 5.5207V30.4807C0 33.1282 2.1525 35.2807 4.8 35.2807H43.2C45.8475 35.2807 48 33.1282 48 30.4807V5.5207C48 2.8732 45.8475 0.720703 43.2 0.720703H4.8ZM28.5 12.6307C29.8087 12.6307 31.17 13.1707 31.17 13.1707L30.69 15.5107C30.69 15.5107 29.655 14.8207 28.74 14.8207C27.33 14.8207 26.82 15.282 26.82 15.9007C26.82 17.112 30.75 17.3257 30.75 20.0407C30.75 22.2982 27.9487 23.8507 25.92 23.8507C23.8913 23.8507 22.83 23.2507 22.83 23.2507L23.34 20.9707C23.34 20.9707 24.4012 21.6007 26.04 21.6007C27.675 21.6007 27.9 20.9032 27.9 20.6107C27.9 18.8782 24 19.362 24 15.9907C24 14.127 25.5225 12.6307 28.5 12.6307ZM15.81 12.8407H18.84L14.52 23.5207H11.4L9.12 14.8807C9.12 14.8807 11.5162 16.1032 12.99 19.4107C13.0537 19.812 13.23 20.4607 13.23 20.4607L15.81 12.8407ZM19.95 12.8407H22.83L21.12 23.5207H18.27L19.95 12.8407ZM35.34 12.8407H38.31L40.5 23.5207H37.92L37.62 21.9907H34.08L33.51 23.5207H30.69L35.34 12.8407ZM6 12.8707H10.38C11.4975 12.8707 11.91 13.9207 11.91 13.9207L12.87 18.7807C11.5725 14.5957 6 12.8707 6 12.8707ZM36.42 15.9307L34.86 19.9507H37.2L36.42 15.9307Z" fill="#238441"/>
</svg>
